<?xml version="1.0" standalone="no"?>
<svg viewBox="0 0 200 200" xmlns="http://www.w3.org/2000/svg">
  <path fill="#BAE6FF" d="M37.2,-62.6C50.4,-56.8,64.9,-51.3,75,-40.9C85,-30.5,90.8,-15.3,91.3,0.3C91.9,15.9,87.2,31.8,78.6,44.7C69.9,57.5,57.2,67.3,43.5,75.7C29.7,84.1,14.9,91,1.3,88.7C-12.2,86.4,-24.4,74.9,-38.6,66.8C-52.8,58.7,-69.1,54,-79.3,43.4C-89.5,32.9,-93.6,16.4,-93.5,0C-93.4,-16.3,-89.2,-32.7,-79.5,-44.1C-69.8,-55.6,-54.7,-62.1,-40.6,-67.4C-26.4,-72.7,-13.2,-76.8,-0.6,-75.7C12,-74.7,24,-68.5,37.2,-62.6Z" transform="translate(100 100)" />
</svg>
