<?xml version="1.0" standalone="no"?>
<svg viewBox="0 0 200 200" xmlns="http://www.w3.org/2000/svg">
  <path fill="#A7F3D0" d="M42.8,-74C54.3,-67.5,61.8,-53.7,70.6,-40.2C79.5,-26.6,89.7,-13.3,88.8,-0.6C87.8,12.2,75.6,24.4,66.3,37.1C56.9,49.7,50.4,62.8,39.8,69.8C29.2,76.8,14.6,77.8,0.8,76.5C-13.1,75.1,-26.2,71.6,-40.2,66.6C-54.2,61.6,-69.2,55,-79.2,43.7C-89.2,32.4,-94.3,16.2,-91.4,1.7C-88.5,-12.8,-77.5,-25.6,-66.2,-34.9C-55,-44.1,-43.6,-49.9,-32.5,-56.7C-21.4,-63.5,-10.7,-71.3,2.5,-75.6C15.6,-79.8,31.3,-80.5,42.8,-74Z" transform="translate(100 100)" />
</svg>
